<mxfile host="app.diagrams.net" modified="2023-11-21T19:46:43.681Z" agent="Mozilla/5.0 (Windows NT 10.0; Win64; x64) AppleWebKit/537.36 (KHTML, like Gecko) Chrome/118.0.0.0 Safari/537.36 OPR/104.0.0.0 (Edition Yx GX)" etag="ixwJ5ePSo7Vl5NPtCblH" version="22.1.3" type="github">
  <diagram id="C5RBs43oDa-KdzZeNtuy" name="Page-1">
    <mxGraphModel dx="588" dy="2460" grid="1" gridSize="10" guides="1" tooltips="1" connect="1" arrows="1" fold="1" page="1" pageScale="1" pageWidth="827" pageHeight="1169" math="0" shadow="0">
      <root>
        <mxCell id="WIyWlLk6GJQsqaUBKTNV-0" />
        <mxCell id="WIyWlLk6GJQsqaUBKTNV-1" parent="WIyWlLk6GJQsqaUBKTNV-0" />
        <mxCell id="a28COp_L8p88BnHmlVTV-0" value="" style="edgeStyle=orthogonalEdgeStyle;rounded=0;orthogonalLoop=1;jettySize=auto;html=1;" edge="1" parent="WIyWlLk6GJQsqaUBKTNV-1" source="a28COp_L8p88BnHmlVTV-1">
          <mxGeometry relative="1" as="geometry">
            <mxPoint x="2079" y="-410" as="targetPoint" />
          </mxGeometry>
        </mxCell>
        <mxCell id="a28COp_L8p88BnHmlVTV-1" value="&lt;p style=&quot;line-height: 110%;&quot;&gt;&lt;span style=&quot;font-size: 18px;&quot;&gt;process_str&lt;/span&gt;&lt;/p&gt;" style="ellipse;whiteSpace=wrap;html=1;" vertex="1" parent="WIyWlLk6GJQsqaUBKTNV-1">
          <mxGeometry x="2024" y="-510" width="110" height="60" as="geometry" />
        </mxCell>
        <mxCell id="a28COp_L8p88BnHmlVTV-2" value="&lt;span style=&quot;font-size: 25px;&quot;&gt;Ввод &lt;br&gt;s&lt;br&gt;&lt;/span&gt;" style="shape=parallelogram;perimeter=parallelogramPerimeter;whiteSpace=wrap;html=1;fixedSize=1;" vertex="1" parent="WIyWlLk6GJQsqaUBKTNV-1">
          <mxGeometry x="2019" y="-409" width="120" height="60" as="geometry" />
        </mxCell>
        <mxCell id="a28COp_L8p88BnHmlVTV-3" value="" style="edgeStyle=orthogonalEdgeStyle;rounded=0;orthogonalLoop=1;jettySize=auto;html=1;exitX=0.5;exitY=1;exitDx=0;exitDy=0;entryX=0.5;entryY=0;entryDx=0;entryDy=0;" edge="1" parent="WIyWlLk6GJQsqaUBKTNV-1" source="a28COp_L8p88BnHmlVTV-2">
          <mxGeometry relative="1" as="geometry">
            <mxPoint x="2079" y="-300" as="targetPoint" />
            <mxPoint x="2089" y="-440" as="sourcePoint" />
          </mxGeometry>
        </mxCell>
        <mxCell id="a28COp_L8p88BnHmlVTV-4" value="prcs = malloc(1)" style="rounded=0;whiteSpace=wrap;html=1;fontSize=20;" vertex="1" parent="WIyWlLk6GJQsqaUBKTNV-1">
          <mxGeometry x="1999" y="-300" width="160" height="51" as="geometry" />
        </mxCell>
        <mxCell id="a28COp_L8p88BnHmlVTV-5" value="" style="edgeStyle=orthogonalEdgeStyle;rounded=0;orthogonalLoop=1;jettySize=auto;html=1;exitX=0.5;exitY=1;exitDx=0;exitDy=0;entryX=0.5;entryY=0;entryDx=0;entryDy=0;" edge="1" parent="WIyWlLk6GJQsqaUBKTNV-1">
          <mxGeometry relative="1" as="geometry">
            <mxPoint x="2079" y="-200" as="targetPoint" />
            <mxPoint x="2079" y="-249" as="sourcePoint" />
          </mxGeometry>
        </mxCell>
        <mxCell id="a28COp_L8p88BnHmlVTV-6" value="* prcs = &#39;\0&#39;" style="rounded=0;whiteSpace=wrap;html=1;fontSize=20;" vertex="1" parent="WIyWlLk6GJQsqaUBKTNV-1">
          <mxGeometry x="1999" y="-200" width="160" height="51" as="geometry" />
        </mxCell>
        <mxCell id="a28COp_L8p88BnHmlVTV-7" value="t = strtok(s, &quot;\t &quot;)" style="rounded=0;whiteSpace=wrap;html=1;fontSize=20;" vertex="1" parent="WIyWlLk6GJQsqaUBKTNV-1">
          <mxGeometry x="1982.59" y="-100" width="192.82" height="51" as="geometry" />
        </mxCell>
        <mxCell id="a28COp_L8p88BnHmlVTV-8" value="" style="edgeStyle=orthogonalEdgeStyle;rounded=0;orthogonalLoop=1;jettySize=auto;html=1;exitX=0.5;exitY=1;exitDx=0;exitDy=0;entryX=0.5;entryY=0;entryDx=0;entryDy=0;" edge="1" parent="WIyWlLk6GJQsqaUBKTNV-1" target="a28COp_L8p88BnHmlVTV-7">
          <mxGeometry relative="1" as="geometry">
            <mxPoint x="2089.18" y="-190" as="targetPoint" />
            <mxPoint x="2079.18" y="-149" as="sourcePoint" />
          </mxGeometry>
        </mxCell>
        <mxCell id="a28COp_L8p88BnHmlVTV-9" value="" style="edgeStyle=orthogonalEdgeStyle;rounded=0;orthogonalLoop=1;jettySize=auto;html=1;exitX=0.5;exitY=1;exitDx=0;exitDy=0;" edge="1" parent="WIyWlLk6GJQsqaUBKTNV-1">
          <mxGeometry relative="1" as="geometry">
            <mxPoint x="2076.2200000000003" as="targetPoint" />
            <mxPoint x="2076.2200000000003" y="-49" as="sourcePoint" />
          </mxGeometry>
        </mxCell>
        <mxCell id="a28COp_L8p88BnHmlVTV-10" value="&lt;span style=&quot;font-size: 20px;&quot;&gt;t == NULL&lt;/span&gt;" style="rhombus;whiteSpace=wrap;html=1;" vertex="1" parent="WIyWlLk6GJQsqaUBKTNV-1">
          <mxGeometry x="2006.04" y="-0.5" width="140" height="100.5" as="geometry" />
        </mxCell>
        <mxCell id="a28COp_L8p88BnHmlVTV-11" value="" style="endArrow=classic;html=1;rounded=0;exitX=0;exitY=0.5;exitDx=0;exitDy=0;endFill=1;entryX=0.5;entryY=0;entryDx=0;entryDy=0;" edge="1" parent="WIyWlLk6GJQsqaUBKTNV-1">
          <mxGeometry width="50" height="50" relative="1" as="geometry">
            <mxPoint x="2006.04" y="50" as="sourcePoint" />
            <mxPoint x="1882.22" y="105" as="targetPoint" />
            <Array as="points">
              <mxPoint x="1882.04" y="50" />
            </Array>
          </mxGeometry>
        </mxCell>
        <mxCell id="a28COp_L8p88BnHmlVTV-12" value="" style="edgeStyle=orthogonalEdgeStyle;rounded=0;orthogonalLoop=1;jettySize=auto;html=1;exitX=1;exitY=0.5;exitDx=0;exitDy=0;entryX=0.5;entryY=0;entryDx=0;entryDy=0;" edge="1" parent="WIyWlLk6GJQsqaUBKTNV-1" target="a28COp_L8p88BnHmlVTV-16">
          <mxGeometry relative="1" as="geometry">
            <mxPoint x="2146.2200000000003" y="50" as="sourcePoint" />
            <mxPoint x="2276.2200000000003" y="80" as="targetPoint" />
            <Array as="points">
              <mxPoint x="2275" y="50" />
            </Array>
          </mxGeometry>
        </mxCell>
        <mxCell id="a28COp_L8p88BnHmlVTV-13" value="&lt;span style=&quot;font-size: 25px;&quot;&gt;Вывод&lt;br&gt;prcs&lt;br&gt;&lt;/span&gt;" style="shape=parallelogram;perimeter=parallelogramPerimeter;whiteSpace=wrap;html=1;fixedSize=1;" vertex="1" parent="WIyWlLk6GJQsqaUBKTNV-1">
          <mxGeometry x="1820" y="106" width="120" height="60" as="geometry" />
        </mxCell>
        <mxCell id="a28COp_L8p88BnHmlVTV-14" value="" style="edgeStyle=orthogonalEdgeStyle;rounded=0;orthogonalLoop=1;jettySize=auto;html=1;exitX=0.5;exitY=1;exitDx=0;exitDy=0;" edge="1" parent="WIyWlLk6GJQsqaUBKTNV-1">
          <mxGeometry relative="1" as="geometry">
            <mxPoint x="1879.55" y="215" as="targetPoint" />
            <mxPoint x="1879.55" y="166" as="sourcePoint" />
          </mxGeometry>
        </mxCell>
        <mxCell id="a28COp_L8p88BnHmlVTV-15" value="&lt;p style=&quot;line-height: 110%;&quot;&gt;&lt;span style=&quot;font-size: 18px;&quot;&gt;Конец&lt;/span&gt;&lt;/p&gt;" style="ellipse;whiteSpace=wrap;html=1;" vertex="1" parent="WIyWlLk6GJQsqaUBKTNV-1">
          <mxGeometry x="1824" y="214" width="110" height="60" as="geometry" />
        </mxCell>
        <mxCell id="a28COp_L8p88BnHmlVTV-16" value="tmp = prcs" style="rounded=0;whiteSpace=wrap;html=1;fontSize=20;" vertex="1" parent="WIyWlLk6GJQsqaUBKTNV-1">
          <mxGeometry x="2179" y="110.5" width="192.82" height="51" as="geometry" />
        </mxCell>
        <mxCell id="a28COp_L8p88BnHmlVTV-17" value="" style="endArrow=classic;html=1;rounded=0;exitX=0.5;exitY=1;exitDx=0;exitDy=0;" edge="1" parent="WIyWlLk6GJQsqaUBKTNV-1" source="a28COp_L8p88BnHmlVTV-16">
          <mxGeometry width="50" height="50" relative="1" as="geometry">
            <mxPoint x="2169" y="80" as="sourcePoint" />
            <mxPoint x="2275" y="230" as="targetPoint" />
          </mxGeometry>
        </mxCell>
        <mxCell id="a28COp_L8p88BnHmlVTV-18" value="&lt;span style=&quot;font-size: 20px;&quot;&gt;strlen(prcs) &amp;gt; 0&lt;/span&gt;" style="rhombus;whiteSpace=wrap;html=1;" vertex="1" parent="WIyWlLk6GJQsqaUBKTNV-1">
          <mxGeometry x="2192.91" y="230" width="165" height="100.5" as="geometry" />
        </mxCell>
        <mxCell id="a28COp_L8p88BnHmlVTV-19" value="" style="edgeStyle=orthogonalEdgeStyle;rounded=0;orthogonalLoop=1;jettySize=auto;html=1;exitX=0;exitY=0.5;exitDx=0;exitDy=0;" edge="1" parent="WIyWlLk6GJQsqaUBKTNV-1" source="a28COp_L8p88BnHmlVTV-18">
          <mxGeometry relative="1" as="geometry">
            <mxPoint x="2050.2200000000003" y="290" as="sourcePoint" />
            <mxPoint x="2079" y="380" as="targetPoint" />
            <Array as="points">
              <mxPoint x="2079" y="280" />
              <mxPoint x="2079" y="351" />
            </Array>
          </mxGeometry>
        </mxCell>
        <mxCell id="a28COp_L8p88BnHmlVTV-20" value="res = strcat(&quot; &quot;, t)" style="rounded=0;whiteSpace=wrap;html=1;fontSize=20;" vertex="1" parent="WIyWlLk6GJQsqaUBKTNV-1">
          <mxGeometry x="1982.59" y="380" width="192.82" height="51" as="geometry" />
        </mxCell>
        <mxCell id="a28COp_L8p88BnHmlVTV-21" value="" style="edgeStyle=orthogonalEdgeStyle;rounded=0;orthogonalLoop=1;jettySize=auto;html=1;exitX=0.5;exitY=1;exitDx=0;exitDy=0;entryX=0.5;entryY=0;entryDx=0;entryDy=0;" edge="1" parent="WIyWlLk6GJQsqaUBKTNV-1">
          <mxGeometry relative="1" as="geometry">
            <mxPoint x="2079" y="480" as="targetPoint" />
            <mxPoint x="2079" y="431" as="sourcePoint" />
          </mxGeometry>
        </mxCell>
        <mxCell id="a28COp_L8p88BnHmlVTV-22" value="prcs = strcat(prcs, res)" style="rounded=0;whiteSpace=wrap;html=1;fontSize=20;" vertex="1" parent="WIyWlLk6GJQsqaUBKTNV-1">
          <mxGeometry x="1964" y="480" width="230" height="51" as="geometry" />
        </mxCell>
        <mxCell id="a28COp_L8p88BnHmlVTV-23" value="" style="edgeStyle=orthogonalEdgeStyle;rounded=0;orthogonalLoop=1;jettySize=auto;html=1;exitX=0.5;exitY=1;exitDx=0;exitDy=0;entryX=0.5;entryY=0;entryDx=0;entryDy=0;" edge="1" parent="WIyWlLk6GJQsqaUBKTNV-1">
          <mxGeometry relative="1" as="geometry">
            <mxPoint x="2079" y="580" as="targetPoint" />
            <mxPoint x="2079" y="531" as="sourcePoint" />
          </mxGeometry>
        </mxCell>
        <mxCell id="a28COp_L8p88BnHmlVTV-24" value="free(res)" style="rounded=0;whiteSpace=wrap;html=1;fontSize=20;" vertex="1" parent="WIyWlLk6GJQsqaUBKTNV-1">
          <mxGeometry x="1999" y="580" width="160" height="51" as="geometry" />
        </mxCell>
        <mxCell id="a28COp_L8p88BnHmlVTV-25" value="" style="edgeStyle=orthogonalEdgeStyle;rounded=0;orthogonalLoop=1;jettySize=auto;html=1;exitX=1;exitY=0.5;exitDx=0;exitDy=0;" edge="1" parent="WIyWlLk6GJQsqaUBKTNV-1" source="a28COp_L8p88BnHmlVTV-18">
          <mxGeometry relative="1" as="geometry">
            <mxPoint x="2203" y="290" as="sourcePoint" />
            <mxPoint x="2459" y="380" as="targetPoint" />
          </mxGeometry>
        </mxCell>
        <mxCell id="a28COp_L8p88BnHmlVTV-26" value="prcs = strcat(prcs, t)" style="rounded=0;whiteSpace=wrap;html=1;fontSize=20;" vertex="1" parent="WIyWlLk6GJQsqaUBKTNV-1">
          <mxGeometry x="2339" y="380" width="230" height="51" as="geometry" />
        </mxCell>
        <mxCell id="a28COp_L8p88BnHmlVTV-27" value="" style="endArrow=classic;html=1;rounded=0;exitX=0.5;exitY=1;exitDx=0;exitDy=0;" edge="1" parent="WIyWlLk6GJQsqaUBKTNV-1" source="a28COp_L8p88BnHmlVTV-24">
          <mxGeometry width="50" height="50" relative="1" as="geometry">
            <mxPoint x="2219" y="560" as="sourcePoint" />
            <mxPoint x="2269" y="770" as="targetPoint" />
            <Array as="points">
              <mxPoint x="2079" y="710" />
              <mxPoint x="2269" y="710" />
            </Array>
          </mxGeometry>
        </mxCell>
        <mxCell id="a28COp_L8p88BnHmlVTV-28" value="" style="endArrow=none;html=1;rounded=0;exitX=0.5;exitY=1;exitDx=0;exitDy=0;endFill=0;" edge="1" parent="WIyWlLk6GJQsqaUBKTNV-1" source="a28COp_L8p88BnHmlVTV-26">
          <mxGeometry width="50" height="50" relative="1" as="geometry">
            <mxPoint x="2219" y="560" as="sourcePoint" />
            <mxPoint x="2269" y="710" as="targetPoint" />
            <Array as="points">
              <mxPoint x="2454" y="710" />
            </Array>
          </mxGeometry>
        </mxCell>
        <mxCell id="a28COp_L8p88BnHmlVTV-29" value="free(tmp)" style="rounded=0;whiteSpace=wrap;html=1;fontSize=20;" vertex="1" parent="WIyWlLk6GJQsqaUBKTNV-1">
          <mxGeometry x="2192.91" y="770" width="160" height="51" as="geometry" />
        </mxCell>
        <mxCell id="a28COp_L8p88BnHmlVTV-30" value="" style="endArrow=classic;html=1;rounded=0;exitX=0.5;exitY=1;exitDx=0;exitDy=0;" edge="1" parent="WIyWlLk6GJQsqaUBKTNV-1" source="a28COp_L8p88BnHmlVTV-29">
          <mxGeometry width="50" height="50" relative="1" as="geometry">
            <mxPoint x="2249" y="620" as="sourcePoint" />
            <mxPoint x="2079" y="-130" as="targetPoint" />
            <Array as="points">
              <mxPoint x="2273" y="910" />
              <mxPoint x="2599" y="910" />
              <mxPoint x="2599" y="-130" />
            </Array>
          </mxGeometry>
        </mxCell>
        <mxCell id="a28COp_L8p88BnHmlVTV-31" value="" style="edgeStyle=orthogonalEdgeStyle;rounded=0;orthogonalLoop=1;jettySize=auto;html=1;entryX=0.5;entryY=0;entryDx=0;entryDy=0;" edge="1" parent="WIyWlLk6GJQsqaUBKTNV-1" source="a28COp_L8p88BnHmlVTV-32">
          <mxGeometry relative="1" as="geometry">
            <mxPoint x="2974" y="-389" as="targetPoint" />
          </mxGeometry>
        </mxCell>
        <mxCell id="a28COp_L8p88BnHmlVTV-32" value="&lt;p style=&quot;line-height: 110%;&quot;&gt;&lt;span style=&quot;font-size: 18px;&quot;&gt;main&lt;/span&gt;&lt;/p&gt;" style="ellipse;whiteSpace=wrap;html=1;" vertex="1" parent="WIyWlLk6GJQsqaUBKTNV-1">
          <mxGeometry x="2919" y="-510" width="110" height="60" as="geometry" />
        </mxCell>
        <mxCell id="a28COp_L8p88BnHmlVTV-33" value="s = readline(&quot;&quot;)" style="rounded=0;whiteSpace=wrap;html=1;fontSize=20;" vertex="1" parent="WIyWlLk6GJQsqaUBKTNV-1">
          <mxGeometry x="2894" y="-390" width="160" height="51" as="geometry" />
        </mxCell>
        <mxCell id="a28COp_L8p88BnHmlVTV-34" value="&lt;span style=&quot;font-size: 20px;&quot;&gt;s == NULL || strlen(s) &amp;lt; 1&lt;/span&gt;" style="rhombus;whiteSpace=wrap;html=1;" vertex="1" parent="WIyWlLk6GJQsqaUBKTNV-1">
          <mxGeometry x="2839" y="-270" width="270" height="100.5" as="geometry" />
        </mxCell>
        <mxCell id="a28COp_L8p88BnHmlVTV-35" value="" style="edgeStyle=orthogonalEdgeStyle;rounded=0;orthogonalLoop=1;jettySize=auto;html=1;entryX=0.5;entryY=0;entryDx=0;entryDy=0;exitX=0.5;exitY=1;exitDx=0;exitDy=0;" edge="1" parent="WIyWlLk6GJQsqaUBKTNV-1" source="a28COp_L8p88BnHmlVTV-33" target="a28COp_L8p88BnHmlVTV-34">
          <mxGeometry relative="1" as="geometry">
            <mxPoint x="3079" y="-239" as="targetPoint" />
            <mxPoint x="3079" y="-300" as="sourcePoint" />
          </mxGeometry>
        </mxCell>
        <mxCell id="a28COp_L8p88BnHmlVTV-36" value="" style="edgeStyle=orthogonalEdgeStyle;rounded=0;orthogonalLoop=1;jettySize=auto;html=1;exitX=0;exitY=0.5;exitDx=0;exitDy=0;" edge="1" parent="WIyWlLk6GJQsqaUBKTNV-1" source="a28COp_L8p88BnHmlVTV-34">
          <mxGeometry relative="1" as="geometry">
            <mxPoint x="3069" y="-130" as="sourcePoint" />
            <mxPoint x="2739" y="-130" as="targetPoint" />
          </mxGeometry>
        </mxCell>
        <mxCell id="a28COp_L8p88BnHmlVTV-37" value="&lt;p style=&quot;line-height: 110%;&quot;&gt;&lt;span style=&quot;font-size: 18px;&quot;&gt;Конец&lt;/span&gt;&lt;/p&gt;" style="ellipse;whiteSpace=wrap;html=1;" vertex="1" parent="WIyWlLk6GJQsqaUBKTNV-1">
          <mxGeometry x="2687.59" y="-20" width="110" height="60" as="geometry" />
        </mxCell>
        <mxCell id="a28COp_L8p88BnHmlVTV-38" value="free(s)" style="rounded=0;whiteSpace=wrap;html=1;fontSize=20;" vertex="1" parent="WIyWlLk6GJQsqaUBKTNV-1">
          <mxGeometry x="2646.1800000000003" y="-130" width="192.82" height="51" as="geometry" />
        </mxCell>
        <mxCell id="a28COp_L8p88BnHmlVTV-39" value="" style="edgeStyle=orthogonalEdgeStyle;rounded=0;orthogonalLoop=1;jettySize=auto;html=1;exitX=0.5;exitY=1;exitDx=0;exitDy=0;entryX=0.5;entryY=0;entryDx=0;entryDy=0;" edge="1" parent="WIyWlLk6GJQsqaUBKTNV-1" source="a28COp_L8p88BnHmlVTV-38" target="a28COp_L8p88BnHmlVTV-37">
          <mxGeometry relative="1" as="geometry">
            <mxPoint x="2735" y="-20" as="targetPoint" />
            <mxPoint x="2984" y="-329" as="sourcePoint" />
          </mxGeometry>
        </mxCell>
        <mxCell id="a28COp_L8p88BnHmlVTV-40" value="" style="edgeStyle=orthogonalEdgeStyle;rounded=0;orthogonalLoop=1;jettySize=auto;html=1;exitX=1;exitY=0.5;exitDx=0;exitDy=0;entryX=0.5;entryY=0;entryDx=0;entryDy=0;" edge="1" parent="WIyWlLk6GJQsqaUBKTNV-1" source="a28COp_L8p88BnHmlVTV-34" target="a28COp_L8p88BnHmlVTV-41">
          <mxGeometry relative="1" as="geometry">
            <mxPoint x="2849" y="-210" as="sourcePoint" />
            <mxPoint x="3219" y="-140" as="targetPoint" />
          </mxGeometry>
        </mxCell>
        <mxCell id="a28COp_L8p88BnHmlVTV-41" value="res = process_str(s)" style="rounded=0;whiteSpace=wrap;html=1;fontSize=20;" vertex="1" parent="WIyWlLk6GJQsqaUBKTNV-1">
          <mxGeometry x="3125" y="10" width="190" height="51" as="geometry" />
        </mxCell>
        <mxCell id="a28COp_L8p88BnHmlVTV-42" value="equasion = id(res)" style="rounded=0;whiteSpace=wrap;html=1;fontSize=20;" vertex="1" parent="WIyWlLk6GJQsqaUBKTNV-1">
          <mxGeometry x="3125" y="117" width="190" height="51" as="geometry" />
        </mxCell>
        <mxCell id="a28COp_L8p88BnHmlVTV-43" value="" style="endArrow=classic;html=1;rounded=0;exitX=0.5;exitY=1;exitDx=0;exitDy=0;entryX=0.5;entryY=0;entryDx=0;entryDy=0;" edge="1" parent="WIyWlLk6GJQsqaUBKTNV-1" source="a28COp_L8p88BnHmlVTV-41" target="a28COp_L8p88BnHmlVTV-42">
          <mxGeometry width="50" height="50" relative="1" as="geometry">
            <mxPoint x="3089" y="117" as="sourcePoint" />
            <mxPoint x="3139" y="67" as="targetPoint" />
          </mxGeometry>
        </mxCell>
        <mxCell id="a28COp_L8p88BnHmlVTV-44" value="" style="endArrow=classic;html=1;rounded=0;exitX=0.5;exitY=1;exitDx=0;exitDy=0;entryX=0.5;entryY=0;entryDx=0;entryDy=0;" edge="1" parent="WIyWlLk6GJQsqaUBKTNV-1">
          <mxGeometry width="50" height="50" relative="1" as="geometry">
            <mxPoint x="3220" y="168" as="sourcePoint" />
            <mxPoint x="3220" y="224.00000000000023" as="targetPoint" />
          </mxGeometry>
        </mxCell>
        <mxCell id="a28COp_L8p88BnHmlVTV-45" value="&lt;span style=&quot;font-size: 25px;&quot;&gt;equasion&lt;br&gt;&lt;/span&gt;" style="shape=parallelogram;perimeter=parallelogramPerimeter;whiteSpace=wrap;html=1;fixedSize=1;" vertex="1" parent="WIyWlLk6GJQsqaUBKTNV-1">
          <mxGeometry x="3154.5" y="225" width="129" height="60" as="geometry" />
        </mxCell>
        <mxCell id="a28COp_L8p88BnHmlVTV-46" value="" style="endArrow=classic;html=1;rounded=0;exitX=0.5;exitY=1;exitDx=0;exitDy=0;entryX=0.5;entryY=0;entryDx=0;entryDy=0;" edge="1" parent="WIyWlLk6GJQsqaUBKTNV-1">
          <mxGeometry width="50" height="50" relative="1" as="geometry">
            <mxPoint x="3219.52" y="285" as="sourcePoint" />
            <mxPoint x="3219.52" y="341.0000000000002" as="targetPoint" />
          </mxGeometry>
        </mxCell>
        <mxCell id="a28COp_L8p88BnHmlVTV-47" value="free(equasion)" style="rounded=0;whiteSpace=wrap;html=1;fontSize=20;" vertex="1" parent="WIyWlLk6GJQsqaUBKTNV-1">
          <mxGeometry x="3124" y="343" width="190" height="51" as="geometry" />
        </mxCell>
        <mxCell id="a28COp_L8p88BnHmlVTV-48" value="" style="endArrow=classic;html=1;rounded=0;exitX=0.5;exitY=1;exitDx=0;exitDy=0;entryX=0.5;entryY=0;entryDx=0;entryDy=0;" edge="1" parent="WIyWlLk6GJQsqaUBKTNV-1">
          <mxGeometry width="50" height="50" relative="1" as="geometry">
            <mxPoint x="3219.52" y="397" as="sourcePoint" />
            <mxPoint x="3219.52" y="453.0000000000002" as="targetPoint" />
          </mxGeometry>
        </mxCell>
        <mxCell id="a28COp_L8p88BnHmlVTV-49" value="free(res)" style="rounded=0;whiteSpace=wrap;html=1;fontSize=20;" vertex="1" parent="WIyWlLk6GJQsqaUBKTNV-1">
          <mxGeometry x="3124" y="455" width="190" height="51" as="geometry" />
        </mxCell>
        <mxCell id="a28COp_L8p88BnHmlVTV-50" value="" style="endArrow=classic;html=1;rounded=0;exitX=0.5;exitY=1;exitDx=0;exitDy=0;entryX=0.5;entryY=0;entryDx=0;entryDy=0;" edge="1" parent="WIyWlLk6GJQsqaUBKTNV-1">
          <mxGeometry width="50" height="50" relative="1" as="geometry">
            <mxPoint x="3219.52" y="508" as="sourcePoint" />
            <mxPoint x="3219.52" y="564.0000000000002" as="targetPoint" />
          </mxGeometry>
        </mxCell>
        <mxCell id="a28COp_L8p88BnHmlVTV-114" style="edgeStyle=orthogonalEdgeStyle;rounded=0;orthogonalLoop=1;jettySize=auto;html=1;exitX=0.5;exitY=1;exitDx=0;exitDy=0;entryX=0.5;entryY=0;entryDx=0;entryDy=0;" edge="1" parent="WIyWlLk6GJQsqaUBKTNV-1" source="a28COp_L8p88BnHmlVTV-51" target="a28COp_L8p88BnHmlVTV-107">
          <mxGeometry relative="1" as="geometry" />
        </mxCell>
        <mxCell id="a28COp_L8p88BnHmlVTV-51" value="free(s)" style="rounded=0;whiteSpace=wrap;html=1;fontSize=20;" vertex="1" parent="WIyWlLk6GJQsqaUBKTNV-1">
          <mxGeometry x="3124" y="566" width="190" height="51" as="geometry" />
        </mxCell>
        <mxCell id="a28COp_L8p88BnHmlVTV-106" value="begin = clock()" style="rounded=0;whiteSpace=wrap;html=1;fontSize=20;" vertex="1" parent="WIyWlLk6GJQsqaUBKTNV-1">
          <mxGeometry x="3124" y="-130" width="190" height="51" as="geometry" />
        </mxCell>
        <mxCell id="a28COp_L8p88BnHmlVTV-115" style="edgeStyle=orthogonalEdgeStyle;rounded=0;orthogonalLoop=1;jettySize=auto;html=1;exitX=0.5;exitY=1;exitDx=0;exitDy=0;entryX=0.5;entryY=0;entryDx=0;entryDy=0;" edge="1" parent="WIyWlLk6GJQsqaUBKTNV-1" source="a28COp_L8p88BnHmlVTV-107" target="a28COp_L8p88BnHmlVTV-108">
          <mxGeometry relative="1" as="geometry" />
        </mxCell>
        <mxCell id="a28COp_L8p88BnHmlVTV-107" value="end = clock()" style="rounded=0;whiteSpace=wrap;html=1;fontSize=20;" vertex="1" parent="WIyWlLk6GJQsqaUBKTNV-1">
          <mxGeometry x="3125" y="760" width="190" height="51" as="geometry" />
        </mxCell>
        <mxCell id="a28COp_L8p88BnHmlVTV-116" style="edgeStyle=orthogonalEdgeStyle;rounded=0;orthogonalLoop=1;jettySize=auto;html=1;exitX=0.5;exitY=1;exitDx=0;exitDy=0;" edge="1" parent="WIyWlLk6GJQsqaUBKTNV-1">
          <mxGeometry relative="1" as="geometry">
            <mxPoint x="2975" y="-307.0909423828125" as="targetPoint" />
            <mxPoint x="3215" y="910" as="sourcePoint" />
            <Array as="points">
              <mxPoint x="3215" y="930" />
              <mxPoint x="3445" y="930" />
              <mxPoint x="3445" y="-307" />
            </Array>
          </mxGeometry>
        </mxCell>
        <mxCell id="a28COp_L8p88BnHmlVTV-108" value="&lt;span style=&quot;font-size: 25px;&quot;&gt;end - begin&lt;br&gt;&lt;/span&gt;" style="shape=parallelogram;perimeter=parallelogramPerimeter;whiteSpace=wrap;html=1;fixedSize=1;" vertex="1" parent="WIyWlLk6GJQsqaUBKTNV-1">
          <mxGeometry x="3137.25" y="850" width="165.5" height="60" as="geometry" />
        </mxCell>
        <mxCell id="a28COp_L8p88BnHmlVTV-110" value="&lt;font style=&quot;font-size: 20px;&quot;&gt;Да&lt;/font&gt;" style="edgeLabel;html=1;align=center;verticalAlign=middle;resizable=0;points=[];" vertex="1" connectable="0" parent="WIyWlLk6GJQsqaUBKTNV-1">
          <mxGeometry x="2089.996132462128" y="-100" as="geometry">
            <mxPoint x="51" y="376" as="offset" />
          </mxGeometry>
        </mxCell>
        <mxCell id="a28COp_L8p88BnHmlVTV-113" value="&lt;font style=&quot;font-size: 20px;&quot;&gt;Да&lt;/font&gt;" style="edgeLabel;html=1;align=center;verticalAlign=middle;resizable=0;points=[];" vertex="1" connectable="0" parent="WIyWlLk6GJQsqaUBKTNV-1">
          <mxGeometry x="1889.9961324621281" y="-330" as="geometry">
            <mxPoint x="51" y="376" as="offset" />
          </mxGeometry>
        </mxCell>
      </root>
    </mxGraphModel>
  </diagram>
</mxfile>
